<svg width="30" height="30" viewBox="0 0 30 30" fill="none" xmlns="http://www.w3.org/2000/svg">
<path d="M10 15H5C4.30964 15 3.75 15.5596 3.75 16.25V23.75C3.75 24.4404 4.30964 25 5 25H10C10.6904 25 11.25 24.4404 11.25 23.75V16.25C11.25 15.5596 10.6904 15 10 15Z" stroke="#454545" stroke-width="2.75" stroke-linecap="round" stroke-linejoin="round"/>
<path d="M17.5 10H12.5C11.8096 10 11.25 10.5596 11.25 11.25V23.75C11.25 24.4404 11.8096 25 12.5 25H17.5C18.1904 25 18.75 24.4404 18.75 23.75V11.25C18.75 10.5596 18.1904 10 17.5 10Z" stroke="#454545" stroke-width="2.75" stroke-linecap="round" stroke-linejoin="round"/>
<path d="M25 5H20C19.3096 5 18.75 5.55964 18.75 6.25V23.75C18.75 24.4404 19.3096 25 20 25H25C25.6904 25 26.25 24.4404 26.25 23.75V6.25C26.25 5.55964 25.6904 5 25 5Z" stroke="#454545" stroke-width="2.75" stroke-linecap="round" stroke-linejoin="round"/>
<path d="M5 25H22.5" stroke="#454545" stroke-width="2.75" stroke-linecap="round" stroke-linejoin="round"/>
</svg>
