<svg width="21" height="20" viewBox="0 0 21 20" fill="none" xmlns="http://www.w3.org/2000/svg">
<path d="M4.03711 5.83334H17.5821" stroke="#FF2825" stroke-width="1.5" stroke-linecap="round" stroke-linejoin="round"/>
<path d="M9.11646 9.16666V14.1667" stroke="#FF2825" stroke-width="1.5" stroke-linecap="round" stroke-linejoin="round"/>
<path d="M12.5027 9.16666V14.1667" stroke="#FF2825" stroke-width="1.5" stroke-linecap="round" stroke-linejoin="round"/>
<path d="M4.88379 5.83334L5.73035 15.8333C5.73035 16.2754 5.90873 16.6993 6.22625 17.0119C6.54378 17.3244 6.97443 17.5 7.42347 17.5H14.196C14.645 17.5 15.0757 17.3244 15.3932 17.0119C15.7107 16.6993 15.8891 16.2754 15.8891 15.8333L16.7356 5.83334" stroke="#FF2825" stroke-width="1.5" stroke-linecap="round" stroke-linejoin="round"/>
<path d="M8.27002 5.83333V3.33333C8.27002 3.11232 8.35921 2.90036 8.51797 2.74408C8.67673 2.5878 8.89206 2.5 9.11658 2.5H12.5028C12.7273 2.5 12.9427 2.5878 13.1014 2.74408C13.2602 2.90036 13.3494 3.11232 13.3494 3.33333V5.83333" stroke="#FF2825" stroke-width="1.5" stroke-linecap="round" stroke-linejoin="round"/>
</svg>
