<svg width="30" height="30" viewBox="0 0 30 30" fill="none" xmlns="http://www.w3.org/2000/svg">
<path d="M11.25 26.25C12.6307 26.25 13.75 25.1307 13.75 23.75C13.75 22.3693 12.6307 21.25 11.25 21.25C9.86929 21.25 8.75 22.3693 8.75 23.75C8.75 25.1307 9.86929 26.25 11.25 26.25Z" stroke="#2F80ED" stroke-width="2.75" stroke-linecap="round" stroke-linejoin="round"/>
<path d="M21.25 26.25C22.6307 26.25 23.75 25.1307 23.75 23.75C23.75 22.3693 22.6307 21.25 21.25 21.25C19.8693 21.25 18.75 22.3693 18.75 23.75C18.75 25.1307 19.8693 26.25 21.25 26.25Z" stroke="#2F80ED" stroke-width="2.75" stroke-linecap="round" stroke-linejoin="round"/>
<path d="M3.75 3.75H6.25L8.75 18.75C9.01965 19.5168 9.53118 20.1753 10.2075 20.6262C10.8839 21.0771 11.6884 21.296 12.5 21.25H21.25C22.0616 21.296 22.8661 21.0771 23.5425 20.6262C24.2188 20.1753 24.7303 19.5168 25 18.75L26.25 10H7.25" stroke="#2F80ED" stroke-width="2.75" stroke-linecap="round" stroke-linejoin="round"/>
</svg>
