<svg width="39" height="41" viewBox="0 0 39 41" fill="none" xmlns="http://www.w3.org/2000/svg">
<ellipse cx="19.3679" cy="20.5" rx="18.8679" ry="20" fill="#F9A109"/>
<path d="M13.7075 29.5C14.7495 29.5 15.5943 28.6046 15.5943 27.5C15.5943 26.3954 14.7495 25.5 13.7075 25.5C12.6654 25.5 11.8207 26.3954 11.8207 27.5C11.8207 28.6046 12.6654 29.5 13.7075 29.5Z" stroke="white" stroke-width="2.75" stroke-linecap="round" stroke-linejoin="round"/>
<path d="M24.0849 29.5C25.127 29.5 25.9717 28.6046 25.9717 27.5C25.9717 26.3954 25.127 25.5 24.0849 25.5C23.0429 25.5 22.1981 26.3954 22.1981 27.5C22.1981 28.6046 23.0429 29.5 24.0849 29.5Z" stroke="white" stroke-width="2.75" stroke-linecap="round" stroke-linejoin="round"/>
<path d="M24.0848 25.5H13.7075V11.5H11.8207" stroke="white" stroke-width="2.75" stroke-linecap="round" stroke-linejoin="round"/>
<path d="M13.7075 13.5L26.9151 14.5L25.9717 21.5H13.7075" stroke="white" stroke-width="2.75" stroke-linecap="round" stroke-linejoin="round"/>
</svg>
